<?xml version="1.0" standalone="no"?><!DOCTYPE svg PUBLIC "-//W3C//DTD SVG 1.1//EN" "http://www.w3.org/Graphics/SVG/1.1/DTD/svg11.dtd"><svg t="1581913064294" class="icon" viewBox="0 0 1024 1024" version="1.1" xmlns="http://www.w3.org/2000/svg" p-id="9807" xmlns:xlink="http://www.w3.org/1999/xlink" width="25" height="25"><defs><style type="text/css"></style></defs><path d="M199.186286 895.616c0 38.272 67.968 69.302857 151.808 69.302857 83.84 0 151.808-31.030857 151.808-69.302857 0-38.253714-67.968-69.284571-151.808-69.284571-83.84 0-151.808 31.030857-151.808 69.284571z" fill="#FFBD14" p-id="9808"></path><path d="M355.492571 952.557714c-83.821714 0-151.789714-31.012571-151.789714-69.302857 0-1.700571 0.292571-3.401143 0.548572-5.101714-3.2 5.302857-4.937143 11.337143-5.065143 17.481143 0 38.253714 67.968 69.302857 151.808 69.302857 80.054857 0 145.481143-28.306286 151.222857-64.182857-16.969143 29.769143-76.123429 51.803429-146.724572 51.803428z" fill="#EF9E0D" p-id="9809"></path><path d="M520.740571 895.616c0 38.272 67.968 69.302857 151.808 69.302857 83.84 0 151.789714-31.030857 151.789715-69.302857 0-38.253714-67.949714-69.284571-151.789715-69.284571s-151.808 31.030857-151.808 69.284571z" fill="#FFBD14" p-id="9810"></path><path d="M668.068571 952.557714c83.821714 0 151.789714-31.012571 151.789715-69.302857 0-1.700571-0.292571-3.401143-0.548572-5.101714 3.181714 5.595429 5.065143 11.428571 5.065143 17.481143 0 38.253714-67.968 69.302857-151.808 69.302857-80.054857 0-145.481143-28.306286-151.222857-64.182857 16.950857 29.769143 76.123429 51.803429 146.724571 51.803428z" fill="#EF9E0D" p-id="9811"></path><path d="M849.444571 496.274286l-34.139428-107.684572C815.305143 38.052571 526.884571 36.900571 512 36.900571 496.457143 36.900571 208.64 38.034286 208.64 388.571429L174.518857 496.274286s-115.876571 142.994286-37.723428 267.410285c8.740571 5.961143 9.435429 27.812571 56.576-70.162285 0 0 63.286857 219.117714 317.019428 220.982857v0.091428l1.590857-0.036571 1.590857 0.036571v-0.091428c253.696-1.865143 317.001143-220.982857 317.001143-220.982857 47.177143 97.956571 48.109714 78.116571 56.594286 70.162285 78.134857-124.434286-37.723429-267.410286-37.723429-267.410285z" fill="#121214" p-id="9812"></path><path d="M525.257143 267.666286c0 30.262857 11.684571 58.24 30.646857 73.380571 18.980571 15.122286 42.331429 15.122286 61.312 0 18.962286-15.140571 30.646857-43.117714 30.646857-73.380571 0-46.811429-27.446857-84.717714-61.312-84.717715-33.846857 0-61.293714 37.924571-61.293714 84.717715zM367.652571 267.666286c0 46.793143 27.446857 84.717714 61.312 84.717714 33.846857 0 61.293714-37.924571 61.293715-84.717714 0-46.811429-27.428571-84.717714-61.293715-84.717715-33.865143 0-61.312 37.924571-61.312 84.717715z" fill="#FFFFFF" p-id="9813"></path><path d="M417.462857 267.666286c0 23.826286 13.988571 43.154286 31.213714 43.154285 17.243429 0 31.232-19.328 31.232-43.154285s-13.988571-43.154286-31.232-43.154286c-17.225143 0-31.195429 19.328-31.195428 43.154286z" fill="#1D1D1D" p-id="9814"></path><path d="M548.534857 294.308571a6.418286 6.418286 0 0 1-6.454857-5.686857c-0.402286-3.803429-3.510857-37.485714 11.136-53.449143 9.929143-10.843429 28.324571-10.843429 38.253714 0 14.628571 15.945143 11.501714 49.645714 11.099429 53.449143a6.107429 6.107429 0 0 1-2.304 4.333715 6.345143 6.345143 0 0 1-4.809143 1.316571 6.4 6.4 0 0 1-5.778286-6.985143c0.932571-8.758857 1.334857-33.645714-7.826285-43.611428a12.873143 12.873143 0 0 0-19.017143 0c-9.216 10.002286-8.795429 34.870857-7.862857 43.611428a6.272 6.272 0 0 1-1.408 4.662857 6.528 6.528 0 0 1-4.370286 2.322286c-0.219429 0.036571-0.457143 0.036571-0.658286 0.036571z" fill="#202020" p-id="9815"></path><path d="M448.658286 255.689143c0 7.314286 4.297143 13.220571 9.581714 13.220571 5.284571 0 9.563429-5.906286 9.563429-13.220571 0-7.296-4.278857-13.202286-9.563429-13.202286-5.302857 0-9.581714 5.906286-9.581714 13.202286z" fill="#FFFFFF" p-id="9816"></path><path d="M675.693714 392.100571c-49.865143-22.930286-129.792-30.445714-162.121143-30.445714-32.329143 0-112.274286 7.497143-162.121142 30.445714-23.808 7.954286-33.243429 14.134857-33.243429 21.632 0 7.497143 60.178286 51.638857 124.397714 78.537143 30.171429 14.994286 39.076571 27.812571 70.948572 27.812572 31.890286 0 40.777143-12.8 70.985143-27.794286 64.219429-26.934857 124.397714-71.058286 124.397714-78.555429 0-7.497143-9.453714-13.677714-33.243429-21.632z" fill="#FAB718" p-id="9817"></path><path d="M355.492571 415.926857s66.468571 45.897143 154.038858 45.897143c87.588571 0 158.976-45.897143 158.976-45.897143s-52.973714 34.432-93.842286 58.258286-46.262857 30.464-66.925714 30.464c-20.644571 0-47.158857-24.722286-59.062858-30.464-11.885714-5.723429-44.672-29.549714-93.184-58.258286z" fill="#8C2B01" p-id="9818"></path><path d="M760.557714 460.288c-104.228571 85.394286-248.557714 75.702857-248.557714 75.702857s-144.347429 9.691429-248.576-75.702857c0 0-99.236571 439.314286 248.576 439.314286 347.794286 0 248.557714-439.314286 248.557714-439.314286z" fill="#FAFAFA" p-id="9819"></path><path d="M815.36 388.589714S732.288 535.113143 512 535.113143 208.64 388.571429 208.64 388.571429c-35.035429 94.427429-34.139429 107.666286-34.139429 107.666285a419.803429 419.803429 0 0 0 119.698286 90.660572c-2.925714 31.469714-6.948571 79.908571-6.509714 104.612571 0.658286 38.4 24.521143 41.051429 79.963428 46.354286 55.424 5.302857 43.977143-9.289143 43.977143-33.773714v-77.348572c58.788571 11.154286 100.370286 7.204571 100.370286 7.204572s192.877714 19.419429 337.481143-137.691429c0 0 0.914286-13.257143-34.121143-107.684571z" fill="#E32B10" p-id="9820"></path></svg>