<?xml version="1.0" standalone="no"?><!DOCTYPE svg PUBLIC "-//W3C//DTD SVG 1.1//EN" "http://www.w3.org/Graphics/SVG/1.1/DTD/svg11.dtd"><svg t="1581426750334" class="icon" viewBox="0 0 1024 1024" version="1.1" xmlns="http://www.w3.org/2000/svg" p-id="7412" xmlns:xlink="http://www.w3.org/1999/xlink" width="200" height="200"><defs><style type="text/css"></style></defs><path d="M512 512m-512 0a512 512 0 1 0 1024 0 512 512 0 1 0-1024 0Z" fill="#19B3FE" p-id="7413"></path><path d="M886.656 676.138667c0 40.234667-33.578667 72.874667-75.008 72.874666h-131.285333c-74.368 0-138.453333-42.197333-168.768-103.189333-30.314667 61.013333-94.4 103.189333-168.789334 103.189333H211.541333c-41.429333 0-75.008-32.64-75.008-72.874666v-182.186667c0-27.413333 18.56-46.165333 38.784-63.445333l158.784-154.282667 1.578667-1.429333c3.946667-3.562667 9.258667-0.746667 13.269333 0.810666l53.696 18.858667c5.013333 1.301333 7.978667 6.293333 6.634667 11.157333l-4.842667 17.6a9.408 9.408 0 0 1-11.498666 6.442667l-44.650667-15.68-110.229333 107.093333H803.626667l-108.245334-105.194666-35.776 12.8a8.874667 8.874667 0 0 1-10.88-6.186667l-4.565333-16.981333a8.789333 8.789333 0 0 1 6.272-10.773334l50.773333-18.176c1.557333-0.426667 3.157333-1.130667 4.266667-1.365333l1.706667 0.106667 160.746666 156.16 4.693334 4.245333c15.850667 14.933333 14.058667 36.096 14.058666 58.24v182.186667z" fill="#FFFFFF" p-id="7414"></path><path d="M324.266667 688.917333h-82.602667c-22.826667 0-41.301333-17.962667-41.301333-40.106666V528.426667c0-22.186667 18.496-40.128 41.301333-40.128h165.205333c22.826667 0 41.301333 17.962667 41.301334 40.106666v40.128c0 66.496-55.466667 120.384-123.904 120.384z" fill="#F56361" p-id="7415"></path><path d="M782.336 688.917333H699.733333c-68.437333 0-123.904-53.888-123.904-120.384v-40.106666c0-22.186667 18.496-40.128 41.301334-40.128h165.205333c22.826667 0 41.301333 17.962667 41.301333 40.106666v120.384c0 22.186667-18.496 40.128-41.301333 40.128z" fill="#33AAE1" p-id="7416"></path></svg>