<?xml version="1.0" standalone="no"?><!DOCTYPE svg PUBLIC "-//W3C//DTD SVG 1.1//EN" "http://www.w3.org/Graphics/SVG/1.1/DTD/svg11.dtd"><svg t="1580909120405" class="icon" viewBox="0 0 1024 1024" version="1.1" xmlns="http://www.w3.org/2000/svg" p-id="975" data-spm-anchor-id="a313x.7781069.0.i0" width="200" height="200" xmlns:xlink="http://www.w3.org/1999/xlink"><defs><style type="text/css"></style></defs><path d="M156.9 533.1c0.5-12.3 9.9-22.5 22.1-23.9 93-10.6 187-5 278.1 16.6l55.7 13.2c13.9 3.3 22.2 17.5 18.2 31.2l-31.4 109c-11.4 39.5-40.1 71.7-78.1 87.4-36.6 15.1-77.1 18.6-115.7 9.9l-28.7-6.4c-39.3-8.8-71.2-37.4-84.3-75.5l-14-40.9c-1.9-5.6-3.6-11.3-4.9-17.1l-17.3-74c-0.5-2.2-0.7-4.4-0.6-6.6l0.9-22.9z m65.7 92.2c1 4.1 2.1 8.2 3.5 12.2l14 40.9c7.4 21.7 25.6 37.9 47.9 42.9l28.7 6.4c28.6 6.4 58.6 3.9 85.7-7.3 23.9-9.9 42-30.1 49.2-55l24.1-83.8-30.2-7.2c-78.2-18.6-158.9-24.6-238.9-17.8l16 68.7z" p-id="976" fill="#2c2c2c" data-spm-anchor-id="a313x.7781069.0.i1" class="selected"></path><path d="M801.2 626.2c-0.8 3.6-1.8 7.1-3 10.5l-14.3 41.7c-7.4 21.5-26.6 38.1-50.8 43.6l-25.4 5.7c-28.8 6.5-59 3.9-86.1-7.2-24-9.9-41.8-29.2-48.4-52.4l-24.8-86.4 30.6-7.3c77.9-18.5 158.6-24.5 238.5-17.7l-16.3 69.5z m43.8-117c-92.9-10.6-187-5-277.7 16.6l-56.1 13.3c-13.9 3.3-22.2 17.5-18.2 31.2l32.1 111.6c10.9 38 39.5 69.1 77.4 84.8 36.5 15.1 77.3 18.5 116.1 9.8l25.4-5.7c40.9-9.2 74-37.9 87.1-76.1l14.3-41.7c1.7-5.1 3.2-10.2 4.4-15.4l17.5-74.9c0.5-2.2 0.7-4.4 0.6-6.6l-0.9-23c-0.3-12.3-9.7-22.5-22-23.9zM205.1 540.6c-5.3 12.7-20 18.7-32.7 13.4-12.7-5.3-18.7-20-13.4-32.7l96.8-230.9c15.7-37.4 58.7-55 96.1-39.3 14 5.9 25.8 15.9 33.9 28.8 7.3 11.7 3.8 27.1-8 34.4-11.7 7.3-27.1 3.8-34.4-8-2.6-4.1-6.3-7.3-10.8-9.2-11.9-5-25.6 0.6-30.6 12.5l-96.9 231z" p-id="977" fill="#2c2c2c"></path><path d="M816.5 537.8c5.3 12.7 20 18.7 32.7 13.4 12.7-5.3 18.7-20 13.4-32.7l-96.8-230.9c-15.7-37.4-58.7-55-96.1-39.3-14 5.9-25.8 15.9-33.9 28.8-7.3 11.7-3.8 27.1 8 34.4 11.7 7.3 27.1 3.8 34.4-8 2.6-4.1 6.3-7.3 10.8-9.2 11.9-5 25.6 0.6 30.6 12.5l96.9 231z" p-id="978" fill="#2c2c2c"></path></svg>