<?xml version="1.0" standalone="no"?><!DOCTYPE svg PUBLIC "-//W3C//DTD SVG 1.1//EN" "http://www.w3.org/Graphics/SVG/1.1/DTD/svg11.dtd"><svg t="1581912584963" class="icon" viewBox="0 0 1048 1024" version="1.1" xmlns="http://www.w3.org/2000/svg" p-id="5782" xmlns:xlink="http://www.w3.org/1999/xlink" width="25.5859375" height="25"><defs><style type="text/css"></style></defs><path d="M0 524.238049c0 229.026341 146.806634 423.71122 351.331902 495.116488 27.523122 6.918244 23.302244-12.637659 23.302244-25.974635v-90.861268c-158.994732 18.606829-165.413463-86.64039-176.202926-104.198244-21.653854-36.864-72.454244-46.229854-57.368976-63.812683 36.314537-18.606829 73.178537 4.695415 115.786927 67.933659 30.919805 45.755317 91.210927 38.037854 121.880975 30.420293a148.579902 148.579902 0 0 1 40.635317-71.305366c-164.739122-29.496195-233.447024-130.072976-233.447024-249.706147 0-57.943415 19.206244-111.341268 56.669659-154.299317-23.901659-70.955707 2.222829-131.621463 5.74439-140.612683 68.108488-6.094049 138.714537 48.702439 144.334049 53.02322 38.737171-10.414829 82.894049-16.034341 132.170926-16.034342 49.651512 0 94.008195 5.74439 132.870244 16.284098 13.237073-10.065171 78.798049-57.144195 142.136195-51.399805 3.396683 8.99122 28.921756 68.258341 6.443708 138.264976 38.037854 43.082927 57.368976 96.930341 57.368975 154.998634 0 119.758049-69.082537 220.459707-234.396097 249.606244a149.753756 149.753756 0 0 1 44.606439 106.645853v131.946147c0.949073 10.539707 0 20.979512 17.682732 20.979512 207.697171-69.681951 357.201171-265.890341 357.20117-496.889756C1048.725854 234.620878 813.880195 0 524.362927 0 234.620878-0.124878 0 234.520976 0 524.238049z" fill="#000000" p-id="5783"></path></svg>