<?xml version="1.0" standalone="no"?><!DOCTYPE svg PUBLIC "-//W3C//DTD SVG 1.1//EN" "http://www.w3.org/Graphics/SVG/1.1/DTD/svg11.dtd"><svg t="1581912969425" class="icon" viewBox="0 0 1024 1024" version="1.1" xmlns="http://www.w3.org/2000/svg" p-id="9038" xmlns:xlink="http://www.w3.org/1999/xlink" width="25" height="25"><defs><style type="text/css"></style></defs><path d="M944 168H80c-44.8 0-80 35.2-80 80v528c0 44.8 36.8 80 80 80h864c44.8 0 80-35.2 80-80v-528c0-44.8-36.8-80-80-80z m-4.8 49.6L582.4 532.8c-32 28.8-54.4 41.6-70.4 41.6-16 0-40-12.8-70.4-41.6L84.8 217.6h854.4zM51.2 771.2V265.6L336 515.2l-284.8 256z m35.2 35.2l286.4-254.4 48 41.6c24 20.8 54.4 32 89.6 32 35.2 0 65.6-11.2 91.2-32l48-41.6 286.4 254.4H86.4z m886.4-35.2L688 515.2l284.8-249.6v505.6z" fill="#00BBEE" p-id="9039"></path></svg>